# xmcd
# 
# Track frame offsets:
#     150
#     18480
#     37285
#     51111
#     66947
#     83788
#     101176
#     123357
#     136822
#     152267
#     166468
# 
# Disc length: 2446
# 
# Revision: 0
# Processed by: cddbd v1.5.2PL0 Copyright (c) Steve Scherf et al.
# Submitted via: fre:ac v1.0.17
# 
DISCID=90098c0b
DTITLE=Marty Haggard - Ready or Not...Here He Comes
DYEAR=2000
DGENRE=Country
TTITLE0=Ready or Not
TTITLE1=That River Ran Dry
TTITLE2=It's All About Jesus
TTITLE3=Sign of the Times
TTITLE4=Take My Breath Away
TTITLE5=Grandma's Song
TTITLE6=You Move Me
TTITLE7=Deadest Man Alive
TTITLE8=Easy For Who
TTITLE9=Apple
TTITLE10=Knock Down Some Walls
EXTD=
EXTT0=
EXTT1=
EXTT2=
EXTT3=
EXTT4=
EXTT5=
EXTT6=
EXTT7=
EXTT8=
EXTT9=
EXTT10=
PLAYORDER=
